<svg width="65" height="65" viewBox="0 0 65 65" fill="none" xmlns="http://www.w3.org/2000/svg">
<circle cx="32.5" cy="32.5" r="32.5" fill="#B9D5FF"></circle>
<path fill-rule="evenodd" clip-rule="evenodd" d="M21.7998 21.2C21.7998 19.2118 23.4116 17.6 25.3998 17.6H33.6542C34.609 17.6 35.5247 17.9793 36.1998 18.6544L42.3454 24.8C43.0205 25.4751 43.3998 26.3908 43.3998 27.3456V42.8C43.3998 44.7882 41.788 46.4 39.7998 46.4H25.3998C23.4116 46.4 21.7998 44.7882 21.7998 42.8V21.2ZM25.3998 32C25.3998 31.0059 26.2057 30.2 27.1998 30.2H37.9998C38.9939 30.2 39.7998 31.0059 39.7998 32C39.7998 32.9941 38.9939 33.8 37.9998 33.8H27.1998C26.2057 33.8 25.3998 32.9941 25.3998 32ZM27.1998 37.4C26.2057 37.4 25.3998 38.2059 25.3998 39.2C25.3998 40.1941 26.2057 41 27.1998 41H37.9998C38.9939 41 39.7998 40.1941 39.7998 39.2C39.7998 38.2059 38.9939 37.4 37.9998 37.4H27.1998Z" fill="white"></path>
</svg>