<svg width="464" height="266" viewBox="0 0 464 266" fill="none" xmlns="http://www.w3.org/2000/svg">
<path d="M49 15C49 7.26801 55.268 1 63 1H401C408.732 1 415 7.26801 415 15V249H49V15Z" stroke="#BEE6E3" stroke-width="2"/>
<path d="M463 250C463 256.627 457.627 262 451 262L13 262C6.37256 262 0.999999 256.627 0.999999 250C0.999999 249.448 1.44772 249 2 249L462 249C462.552 249 463 249.448 463 250Z" stroke="#BEE6E3" stroke-width="2" stroke-linejoin="round"/>
<path d="M49 262C49 264.209 47.2091 266 45 266L27 266C24.7909 266 23 264.209 23 262L49 262Z" fill="#BEE4E2"/>
<path d="M443 262C443 264.209 441.209 266 439 266L421 266C418.791 266 417 264.209 417 262L443 262Z" fill="#BEE4E2"/>
<rect x="65" y="14" width="333" height="208" rx="10" fill="white"/>
<path d="M65 30C65 24.3995 65 21.5992 66.0899 19.4601C67.0487 17.5785 68.5785 16.0487 70.4601 15.0899C72.5992 14 75.3995 14 81 14H382C387.601 14 390.401 14 392.54 15.0899C394.422 16.0487 395.951 17.5785 396.91 19.4601C398 21.5992 398 24.3995 398 30V39H65V30Z" fill="#F9E9D6"/>
<rect x="136.743" y="52.6971" width="204.372" height="9.67442" rx="4.83721" fill="#F9E9D6"/>
<rect x="136.743" y="92.6046" width="204.372" height="9.67442" rx="4.83721" fill="#F9E9D6"/>
<rect x="136.743" y="130.094" width="204.372" height="9.67442" rx="4.83721" fill="#F9E9D6"/>
<rect x="136.743" y="169.999" width="204.372" height="9.67442" rx="4.83721" fill="#F9E9D6"/>
<rect x="136.743" y="70.8367" width="162.046" height="9.67442" rx="4.83721" fill="#F9E9D6"/>
<rect x="136.743" y="110.744" width="162.046" height="9.67442" rx="4.83721" fill="#F9E9D6"/>
<rect x="136.743" y="148.234" width="162.046" height="9.67442" rx="4.83721" fill="#F9E9D6"/>
<rect x="136.743" y="188.138" width="162.046" height="9.67442" rx="4.83721" fill="#F9E9D6"/>
<rect x="78" y="23" width="8.46512" height="8.46512" rx="4.23256" fill="#0F9B91"/>
<rect x="92.5117" y="23" width="8.46512" height="8.46512" rx="4.23256" fill="#0F9B91"/>
<rect x="107.023" y="23" width="8.46512" height="8.46512" rx="4.23256" fill="#0F9B91"/>
<rect x="92" y="52.7007" width="29.0233" height="29.0233" rx="6.04651" fill="#F9E9D6"/>
<path d="M99.2549 67.8163L105.906 73.2581L113.767 59.9558" stroke="#0F9B91" stroke-width="3.62791" stroke-linecap="round"/>
<rect x="92" y="91.3937" width="29.0233" height="29.0233" rx="6.04651" fill="#F9E9D6"/>
<path d="M99.2549 106.511L105.906 111.953L113.767 98.6509" stroke="#0F9B91" stroke-width="3.62791" stroke-linecap="round"/>
<rect x="92" y="130.095" width="29.0233" height="29.0233" rx="6.04651" fill="#F9E9D6"/>
<path d="M99.2549 145.212L105.906 150.654L113.767 137.351" stroke="#0F9B91" stroke-width="3.62791" stroke-linecap="round"/>
<rect x="92" y="168.788" width="29.0233" height="29.0233" rx="6.04651" fill="#F9E9D6"/>
<path d="M99.2549 183.907L105.906 189.349L113.767 176.046" stroke="#0F9B91" stroke-width="3.62791" stroke-linecap="round"/>
</svg>
