<svg width="100" height="100" viewBox="0 0 100 100" fill="none" xmlns="http://www.w3.org/2000/svg">
<rect width="100" height="100" rx="20" fill="#B9FBDB"></rect>
<path d="M47.3371 32.9958C48.1753 30.4161 51.8248 30.4161 52.663 32.9958L55.6578 42.2128C56.0327 43.3665 57.1077 44.1476 58.3208 44.1476H68.0121C70.7245 44.1476 71.8523 47.6185 69.6579 49.2128L61.8174 54.9093C60.8361 55.6223 60.4254 56.8861 60.8003 58.0398L63.7951 67.2568C64.6333 69.8365 61.6807 71.9816 59.4863 70.3873L51.6459 64.6908C50.6645 63.9778 49.3356 63.9778 48.3543 64.6908L40.5138 70.3873C38.3194 71.9816 35.3668 69.8365 36.205 67.2568L39.1998 58.0398C39.5747 56.8861 39.164 55.6223 38.1827 54.9093L30.3422 49.2128C28.1478 47.6185 29.2756 44.1476 31.988 44.1476H41.6793C42.8924 44.1476 43.9675 43.3665 44.3423 42.2128L47.3371 32.9958Z" fill="#14CE75"></path>
</svg>