<svg width="35" height="40" viewBox="0 0 35 40" fill="none" xmlns="http://www.w3.org/2000/svg">
<path d="M17.1435 0C16.6925 0 16.3272 0.36557 16.3272 0.816258V4.08166C16.3272 4.53264 16.6928 4.89791 17.1435 4.89791C17.5944 4.89791 17.9597 4.53234 17.9597 4.08166V0.816258C17.9597 0.365272 17.5941 0 17.1435 0ZM5.59967 4.78319C5.39069 4.78319 5.18512 4.86604 5.02568 5.02548C4.7068 5.34436 4.7068 5.85457 5.02568 6.17344L7.33444 8.4822C7.65304 8.80108 8.16353 8.80108 8.48241 8.4822C8.80129 8.16332 8.80129 7.65312 8.48241 7.33424L6.17365 5.02548C6.01421 4.86604 5.80865 4.78319 5.59967 4.78319ZM28.6865 4.78319C28.4778 4.78319 28.272 4.86604 28.1125 5.02548L25.8038 7.33424C25.4849 7.65312 25.4849 8.16332 25.8038 8.4822C26.1224 8.80108 26.6332 8.80108 26.9518 8.4822L29.2605 6.17344C29.5794 5.85457 29.5794 5.34436 29.2605 5.02548C29.1011 4.86604 28.8955 4.78319 28.6865 4.78319ZM17.1427 6.5305C11.7428 6.5305 6.53043 10.7286 6.53043 16.6705C6.53043 20.4179 7.98904 22.7995 9.33657 24.7063C10.6841 26.613 11.8367 28.0138 11.8367 30.2038V35.1017C11.8367 36.4872 12.9855 37.5509 14.2858 37.5509H14.6941C14.6941 38.8936 15.8005 40 17.1432 40C18.4859 40 19.5924 38.8936 19.5924 37.5509H20.0006C21.3009 37.5509 22.4498 36.4874 22.4498 35.1017V30.2038C22.4498 28.0138 23.6023 26.613 24.9499 24.7063C26.2966 22.7995 27.7554 20.4179 27.7554 16.6705C27.7554 10.7283 22.5429 6.5305 17.1431 6.5305H17.1427ZM17.1427 8.16302C21.6982 8.16302 26.1224 11.6886 26.1224 16.6711C26.1224 20.011 24.928 21.9155 23.6223 23.763C22.4498 25.4221 21.1262 27.064 20.8671 29.3881H13.4181C13.159 27.064 11.8353 25.4221 10.6629 23.763C9.35749 21.9155 8.16309 20.011 8.16309 16.6711C8.16309 11.6889 12.5872 8.16375 17.1427 8.16375V8.16302ZM14.7449 9.83402C14.633 9.8343 14.5191 9.84968 14.4004 9.88498C11.8776 10.8365 9.99761 13.0502 9.51532 15.7652C9.43844 16.186 9.75789 16.6449 10.1787 16.7218C10.5995 16.7987 11.0457 16.4793 11.1225 16.0584C11.5035 13.914 12.9982 12.1527 14.9872 11.4028C15.3419 11.271 15.5763 10.8698 15.5102 10.4971C15.3747 10.006 15.0803 9.83202 14.7449 9.83373L14.7449 9.83402ZM0.816258 16.3266C0.365272 16.3266 0 16.6922 0 17.1429C0 17.5939 0.36557 17.9591 0.816258 17.9591H4.08166C4.53264 17.9591 4.89791 17.5936 4.89791 17.1429C4.89791 16.6919 4.53234 16.3266 4.08166 16.3266H0.816258ZM30.2042 16.3266C29.7532 16.3266 29.3879 16.6922 29.3879 17.1429C29.3879 17.5939 29.7535 17.9591 30.2042 17.9591H33.4696C33.9206 17.9591 34.2858 17.5936 34.2858 17.1429C34.2858 16.6919 33.9203 16.3266 33.4696 16.3266H30.2042ZM13.4694 31.0206H20.8164V32.6531H13.4694V31.0206ZM13.4694 34.286H20.8164V35.1022C20.8164 35.5928 20.4226 35.9185 20.0001 35.9185H14.2859C13.8634 35.9185 13.4697 35.5928 13.4697 35.1022V34.286H13.4694ZM16.3265 37.5514H17.959C17.959 38.0177 17.6091 38.3676 17.1427 38.3676C16.6764 38.3676 16.3265 38.0177 16.3265 37.5514Z" fill="#0F9B91"/>
</svg>
