<svg width="24" height="24" viewBox="0 0 24 24" fill="none" xmlns="http://www.w3.org/2000/svg">
<path fill-rule="evenodd" clip-rule="evenodd" d="M12 0C5.37691 0 0 5.37691 0 12C0 18.6231 5.37691 24 12 24C18.6231 24 24 18.6231 24 12C24 5.37691 18.6231 0 12 0ZM12 1.6C17.7399 1.6 22.4 6.26011 22.4 12C22.4 17.7399 17.7399 22.4 12 22.4C6.26011 22.4 1.6 17.7399 1.6 12C1.6 6.26011 6.26011 1.6 12 1.6ZM11.2 11.2H7.2C6.75839 11.2 6.4 11.5584 6.4 12C6.4 12.4416 6.75839 12.8 7.2 12.8H11.2V16.8C11.2 17.2416 11.5584 17.6 12 17.6C12.4416 17.6 12.8 17.2416 12.8 16.8V12.8H16.8C17.2416 12.8 17.6 12.4416 17.6 12C17.6 11.5584 17.2416 11.2 16.8 11.2H12.8V7.2C12.8 6.75839 12.4416 6.4 12 6.4C11.5584 6.4 11.2 6.75839 11.2 7.2V11.2Z" fill="white"/>
</svg>
