<svg width="24" height="24" viewBox="0 0 24 24" fill="none" xmlns="http://www.w3.org/2000/svg">
<path d="M12 24C5.38286 24 0 18.6171 0 12C0 5.38286 5.38286 0 12 0C12.552 0 12.9999 0.447986 12.9999 0.999943C12.9999 1.5519 12.552 1.99989 12 1.99989C6.486 1.99989 2.00014 6.48574 2.00014 11.9997C2.00014 17.5137 6.486 21.9996 12 21.9996C17.514 21.9996 21.9999 17.5137 21.9999 11.9997C21.9999 11.4478 22.4469 10.9998 22.9998 10.9998C23.5527 10.9998 23.9997 11.4478 23.9997 11.9997C23.9997 18.6169 18.6169 23.9997 11.9997 23.9997L12 24ZM12 2.00014C11.74 2.00014 11.48 1.89015 11.29 1.71019C11.1101 1.52018 11.0001 1.26019 11.0001 1.00022C11.0001 0.740229 11.1101 0.480231 11.29 0.290246C11.6701 -0.0797314 12.34 -0.0797314 12.71 0.290246C12.89 0.480257 13 0.740246 13 1.00022C13 1.26021 12.89 1.5202 12.71 1.71019C12.52 1.89015 12.26 2.00014 12 2.00014H12ZM21.24 8.16986C21.0301 7.65994 21.269 7.0698 21.7801 6.85989C22.29 6.64995 22.8801 6.88985 23.0901 7.39997C23.3 7.90989 23.0601 8.50003 22.55 8.70994C22.4199 8.76 22.29 8.78997 22.1699 8.78997C21.77 8.78997 21.399 8.55994 21.24 8.17004L21.24 8.16986ZM19.069 4.92977C18.679 4.5397 18.679 3.8997 19.069 3.50979C19.4601 3.11972 20.0901 3.11972 20.4789 3.50979C20.87 3.89985 20.87 4.53986 20.4789 4.92977C20.2899 5.11978 20.0299 5.21973 19.78 5.21973C19.52 5.21973 19.2701 5.11978 19.069 4.92977ZM15.83 2.75979C15.319 2.54985 15.08 1.95973 15.2899 1.44981C15.4998 0.9399 16.0799 0.699814 16.5999 0.909729C17.1098 1.11966 17.3499 1.70979 17.1299 2.2197C16.9799 2.59972 16.5999 2.82973 16.2099 2.82973C16.0799 2.82973 15.95 2.80981 15.8299 2.75975L15.83 2.75979ZM23 12.9996C22.74 12.9996 22.479 12.8897 22.29 12.7097C22.109 12.5197 22 12.2597 22 11.9997C22 11.7397 22.109 11.4797 22.29 11.2897C22.67 10.9198 23.34 10.9198 23.71 11.2897C23.8899 11.4798 23.9999 11.7397 23.9999 11.9997C23.9999 12.2597 23.8899 12.5197 23.71 12.7097C23.52 12.8897 23.2599 12.9996 23 12.9996ZM15.9988 14.9997C15.8488 14.9997 15.6958 14.9657 15.5529 14.8947L11.5529 12.8947C11.2139 12.7248 11 12.3787 11 11.9997V4.99983C11 4.44788 11.448 3.99989 11.9999 3.99989C12.5519 3.99989 12.9999 4.44788 12.9999 4.99983V11.3817L16.4469 13.1057C16.9409 13.3526 17.1408 13.9536 16.8939 14.4476C16.7189 14.7977 16.3659 14.9996 15.9989 14.9996L15.9988 14.9997Z" fill="white"/>
</svg>
