<svg width="24" height="24" viewBox="0 0 24 24" fill="none" xmlns="http://www.w3.org/2000/svg">
<path d="M12 0C5.3727 0 0 5.3727 0 12C0 18.6273 5.3727 24 12 24C18.6273 24 24 18.6273 24 12C24 5.3727 18.6273 0 12 0ZM17.2409 16.4163C17.0499 16.7537 16.6987 16.9434 16.3367 16.9434C16.1637 16.9434 15.9881 16.8999 15.827 16.809L11.4895 14.356C11.4776 14.3494 11.4684 14.3401 11.4569 14.3331C11.4261 14.314 11.3974 14.293 11.369 14.2709C11.3426 14.2506 11.3167 14.2305 11.2925 14.2077C11.2684 14.1852 11.2469 14.1609 11.2251 14.1359C11.2026 14.1104 11.1801 14.0848 11.1602 14.0572C11.1408 14.0303 11.1243 14.0017 11.1075 13.973C11.0908 13.9446 11.0743 13.9164 11.0606 13.8866C11.0463 13.8557 11.035 13.8233 11.0236 13.7905C11.0127 13.7595 11.0022 13.7289 10.9946 13.6971C10.9869 13.6653 10.9821 13.6326 10.9773 13.5996C10.9721 13.5638 10.968 13.5281 10.9664 13.4917C10.9662 13.4784 10.9626 13.466 10.9626 13.4527V4.98008C10.9626 4.40712 11.4271 3.94257 12.0001 3.94257C12.5733 3.94257 13.0376 4.40709 13.0376 4.98008V12.8475L16.8484 15.0026C17.3471 15.2847 17.5229 15.9176 17.2409 16.4163Z" fill="#2CCE8F"/>
</svg>
