<svg width="164" height="61" viewBox="0 0 164 61" fill="none" xmlns="http://www.w3.org/2000/svg">
    <g clip-path="url(#clip0_8397_73575)">
        <path d="M88.622 17.4122C88.622 19.1091 87.3534 20.376 85.6861 20.376H85.1153V21.1296H83.6473V20.376H83.0629C81.4001 20.376 80.1406 19.1137 80.1406 17.4122C80.1406 15.7245 81.4001 14.4484 83.0629 14.4484H83.6473V13.5977H85.1153V14.4484H85.6861C87.3534 14.453 88.622 15.7245 88.622 17.4122ZM83.6519 19.0073V15.8216H83.0674C82.1432 15.8216 81.4772 16.4782 81.4772 17.4122C81.4772 18.3554 82.1432 19.0027 83.0674 19.0027H83.6519V19.0073ZM87.29 17.4122C87.29 16.4782 86.6149 15.8216 85.6861 15.8216H85.1153V19.0073H85.6861C86.6149 19.0073 87.29 18.36 87.29 17.4122Z" fill="white"/>
        <path d="M89.2891 17.4117C89.2891 15.2986 90.8702 13.5879 92.9725 13.5879C95.052 13.5879 96.6332 15.2986 96.6332 17.4117C96.6332 19.5247 95.052 21.2354 92.9725 21.2354C90.8702 21.2354 89.2891 19.5247 89.2891 17.4117ZM95.2106 17.4117C95.2106 16.1402 94.2456 15.086 92.9725 15.086C91.6948 15.086 90.7162 16.1355 90.7162 17.4117C90.7162 18.6878 91.6948 19.7374 92.9725 19.7374C94.241 19.7374 95.2106 18.6878 95.2106 17.4117Z" fill="white"/>
        <path d="M103.516 13.6973V21.1275H102.048V17.9649H99.0942V21.1275H97.6172V13.6973H99.0942V16.6472H102.048V13.6973H103.516Z" fill="white"/>
        <path d="M111.936 19.7681V22.3065H110.604V21.1275H105.684V22.3065H104.352V19.7681H105.466L106.662 13.6973H111.043V19.7681H111.936ZM109.575 19.7681V15.1075H107.881L106.966 19.7681H109.575Z" fill="white"/>
        <path d="M85.0252 27.7969H82.0395V33.8677H80.5625V26.4375H85.0252V27.7969Z" fill="white"/>
        <path d="M91.7276 26.4363L88.316 33.8665H86.0779V32.5071H87.428L87.8448 31.5824L85.4844 26.4316H87.0248L88.606 29.9225L90.1872 26.4316H91.7276V26.4363Z" fill="white"/>
        <path d="M98.9658 33.8665L98.7483 29.1411L96.8772 32.877H95.9529L94.0682 29.118L93.8507 33.8619H92.3828L92.7271 26.4316H94.2766L96.4196 30.6669L98.5535 26.4316H100.103L100.434 33.8619H98.9658V33.8665Z" fill="white"/>
        <path d="M106.021 32.6784H103.293L102.754 33.8666H101.109L104.648 26.3301L108.195 33.8666H106.564L106.021 32.6784ZM105.459 31.4485L104.648 29.6869L103.846 31.4485H105.459Z" fill="white"/>
        <path d="M114.774 26.4375V33.8677H113.306V30.7051H110.352V33.8677H108.875V26.4375H110.352V29.3874H113.306V26.4375H114.774Z" fill="white"/>
        <path d="M122.152 33.8677H120.684V28.9528L117.825 33.8677H116.117V26.4375H117.594V31.3432L120.453 26.4375H122.147V33.8677H122.152Z" fill="white"/>
        <path d="M128.491 27.7969H126.452V33.8677H124.984V27.7969H122.945V26.4375H128.491V27.7969Z" fill="white"/>
        <path d="M133.099 32.6784H130.371L129.832 33.8666H128.188L131.726 26.3301L135.273 33.8666H133.642L133.099 32.6784ZM132.537 31.4485L131.726 29.6869L130.924 31.4485H132.537Z" fill="white"/>
        <path d="M141.115 28.9343C141.115 30.5387 139.896 31.4311 138.587 31.4311H137.422V33.8724H135.945V26.4375H138.587C139.896 26.4375 141.115 27.3299 141.115 28.9343ZM139.742 28.9343C139.742 28.2222 139.275 27.7969 138.587 27.7969H137.422V30.0671H138.587C139.271 30.0671 139.742 29.6417 139.742 28.9343Z" fill="white"/>
        <path d="M147.907 26.4375V33.8677H146.439V30.7051H143.485V33.8677H142.008V26.4375H143.485V29.3874H146.439V26.4375H147.907Z" fill="white"/>
        <path d="M154.403 31.4819C154.403 32.9892 153.216 33.8724 151.898 33.8724H149.266V26.4375H150.743V29.1007H151.898C153.216 29.1007 154.403 29.9838 154.403 31.4819ZM153.017 31.4819C153.017 30.8115 152.487 30.4647 151.893 30.4647H150.738V32.513H151.893C152.487 32.5084 153.017 32.1616 153.017 31.4819ZM156.755 26.4375V33.8677H155.287V26.4375H156.755Z" fill="white"/>
        <path d="M162.354 33.8677L160.782 31.3941L159.201 33.8677H157.547L159.948 30.0994L157.606 26.4375H159.259L160.777 28.8048L162.286 26.4375H163.94L161.597 30.0994L163.999 33.8677H162.354Z" fill="white"/>
        <path d="M86.2847 46.6099H84.8168V40.5899H82.0395V46.6099H80.5625V39.1797H86.2847V46.6099Z" fill="white"/>
        <path d="M92.8023 41.6718C92.8023 43.2763 91.5835 44.1686 90.2742 44.1686H89.1098V46.6099H87.6328V39.1797H90.2742C91.5881 39.1797 92.8023 40.0674 92.8023 41.6718ZM91.4295 41.6718C91.4295 40.9598 90.9628 40.5344 90.2742 40.5344H89.1098V42.8046H90.2742C90.9628 42.8093 91.4295 42.3839 91.4295 41.6718Z" fill="white"/>
        <path d="M93.375 42.8941C93.375 40.7811 94.9562 39.0703 97.0584 39.0703C99.138 39.0703 100.719 40.7811 100.719 42.8941C100.719 45.0071 99.138 46.7179 97.0584 46.7179C94.9562 46.7179 93.375 45.0071 93.375 42.8941ZM99.292 42.8941C99.292 41.6226 98.327 40.5684 97.0539 40.5684C95.7762 40.5684 94.7976 41.6179 94.7976 42.8941C94.7976 44.1702 95.7762 45.2198 97.0539 45.2198C98.327 45.2198 99.292 44.1702 99.292 42.8941Z" fill="white"/>
        <path d="M101.719 39.1797H106.526V40.5899H103.196V42.1943H106.036V43.4982H103.196V45.1951H106.526V46.6053H101.719V39.1797Z" fill="white"/>
        <path d="M109.952 43.5814H109.086V46.6053H107.609V39.1797H109.086V42.1851H109.952L112.19 39.1797H113.898L111.139 42.874L114.029 46.6099H112.294L109.952 43.5814Z" fill="white"/>
        <path d="M119.928 40.5351H117.89V46.606H116.422V40.5351H114.383V39.1758H119.928V40.5351Z" fill="white"/>
        <path d="M120.219 42.8921C120.219 40.7791 121.8 39.0684 123.902 39.0684C125.982 39.0684 127.563 40.7791 127.563 42.8921C127.563 45.0051 125.982 46.7159 123.902 46.7159C121.8 46.7159 120.219 45.0051 120.219 42.8921ZM126.136 42.8921C126.136 41.6206 125.171 40.5664 123.898 40.5664C122.62 40.5664 121.641 41.616 121.641 42.8921C121.641 44.1683 122.62 45.2178 123.898 45.2178C125.171 45.2178 126.136 44.1683 126.136 42.8921Z" fill="white"/>
        <path d="M133.825 44.3674C133.825 45.7777 132.742 46.6053 131.379 46.6053H128.547V39.1797H131.138C132.534 39.1797 133.562 39.901 133.562 41.3343C133.562 41.94 133.354 42.407 133.01 42.7445C133.503 43.1052 133.825 43.6461 133.825 44.3674ZM130.028 40.4928V42.2128H131.007C131.696 42.2128 132.185 42.0094 132.185 41.3297C132.185 40.6593 131.696 40.4928 131.007 40.4928H130.028ZM132.443 44.3489C132.443 43.7109 131.986 43.4242 131.288 43.4242H130.028V45.2506H131.288C131.986 45.2506 132.443 44.9824 132.443 44.3489Z" fill="white"/>
        <path d="M65.0328 24.3991C63.5966 16.0441 58.3954 11.0644 50.7658 8.42894C48.659 7.70302 46.4979 7.33775 44.3142 7.13431C44.3957 7.70302 44.4501 8.28098 44.4501 8.87281C44.4501 9.52012 44.3867 10.1536 44.287 10.7731C50.8927 12.2573 55.5637 16.844 56.3793 25.9341C56.7009 29.5036 56.3974 33.0546 55.2421 36.4807C53.0674 42.9492 48.6364 46.5557 41.9492 47.2307C40.3589 47.3926 38.7551 47.4573 37.0244 47.5729C37.0244 39.782 37.0244 32.0836 37.0244 24.4037C37.0244 22.9426 37.0244 21.4723 37.0244 20.0112V16.8995C37.0244 16.5712 37.0244 16.2383 37.0244 15.91C37.0244 15.1101 37.0244 14.3056 37.0244 13.5057C37.0244 13.478 37.0244 13.4549 37.0244 13.4271C37.0787 11.1893 38.6056 10.3061 40.3499 10.246C40.7576 10.2645 41.1563 10.3015 41.555 10.3431C41.632 9.86228 41.6819 9.37679 41.6819 8.87281C41.6819 8.207 41.6094 7.55969 41.4735 6.9355C36.1092 6.6627 34.2154 5.74721 34.3241 0H31.3792C31.2478 5.32646 29.3585 6.5656 25.5755 6.91238C25.1994 6.9355 24.8234 6.96324 24.4519 6.98636C24.2752 6.9956 24.0939 7.00485 23.9127 7.00947C23.7904 7.61055 23.727 8.23475 23.727 8.86819C23.727 9.37679 23.7768 9.87615 23.8583 10.3616C24.0214 10.3524 24.1845 10.3385 24.3477 10.3293C26.6583 10.1813 28.3844 10.0935 28.3844 13.5011V15.9054V16.8949V24.3991H28.389C28.389 32.0836 28.389 39.7265 28.389 47.3509C19.0921 47.8919 13.0437 44.7432 10.1758 36.4114C8.59462 31.8154 8.47683 27.0577 9.56418 22.3184C10.9823 16.132 15.1776 12.0169 21.1128 10.7408C21.0176 10.1304 20.9542 9.50625 20.9542 8.86819C20.9542 8.30872 21.004 7.75851 21.0765 7.21754C20.0798 7.30539 19.0876 7.41636 18.0999 7.57356C13.0075 8.40582 8.48589 10.5974 4.98371 14.5599C-2.0705 22.5265 -1.554 35.9351 6.01216 43.7537C9.63214 47.4943 14.1492 49.3299 19.1238 50.0697C21.8694 50.4765 24.6603 50.5598 27.433 50.7956C27.6505 50.8141 27.8997 50.7771 28.0945 50.8372H28.398V51.2811C28.4026 51.3319 28.4116 51.3735 28.4071 51.4336C28.4071 51.4937 28.398 51.5539 28.398 51.614V54.9846H23.8357L26.3457 60.1123C26.4997 60.0059 29.0867 58.272 32.7157 60.1215C36.1545 61.8739 38.5104 60.5191 38.9997 60.1909L41.5505 54.9846H37.0289V50.8372H37.3642C37.6587 50.8279 37.9622 50.8187 38.2658 50.7863C41.3874 50.4858 44.5452 50.3979 47.6215 49.8339C61.9383 47.2122 66.8133 34.7561 65.0328 24.3991Z" fill="white"/>
    </g>
    <defs>
        <clipPath id="clip0_8397_73575">
            <rect width="164" height="61" fill="white"/>
        </clipPath>
    </defs>
</svg>
