<svg width="140" height="140" viewBox="0 0 140 140" fill="none" xmlns="http://www.w3.org/2000/svg">
    <circle cx="70" cy="70" r="70" fill="white"/>
    <path d="M51.7188 67.8137V67.9077H53.3181L55.4349 57.4177H58.963V67.9077H60.5153V55.8184H54.1178L51.7188 67.8137Z" fill="#0F9B91"/>
    <path d="M64.8516 67.9077H72.4251V66.3554H66.4509V62.5451H71.6724V60.9928H66.4509V57.4177H72.4251V55.8184H64.8516V67.9077Z" fill="#0F9B91"/>
    <path d="M74.8281 57.3709H78.4973V67.908H80.0966V57.3709H83.7188V55.8186H74.8281V57.3709Z" fill="#0F9B91"/>
    <path d="M43.8717 72.0928L40.767 78.208L37.6624 72.0928H35.9219L39.8733 79.9485L37.7565 84.1821H39.4969L45.6122 72.0928H43.8717Z" fill="#0F9B91"/>
    <path d="M84.5469 84.1821H92.1204V82.6298H86.1462V78.7725H91.3677V77.2202H86.1462V73.6451H92.1204V72.0928H84.5469V84.1821Z" fill="#0F9B91"/>
    <path d="M93.9141 84.1821H101.488V82.6298H95.5134V78.7725H100.735V77.2202H95.5134V73.6451H101.488V72.0928H93.9141V84.1821Z" fill="#0F9B91"/>
    <path d="M54.1296 72.0928H47.6851L45.5683 82.6298H43.9219V84.1821H55.4938V82.6298H54.1296V72.0928ZM52.5303 82.6298H47.1677L48.9552 73.6451H52.4832V82.6298H52.5303Z" fill="#0F9B91"/>
    <path d="M110.47 71.6699C109.812 71.6699 109.294 71.9051 108.918 72.3285C108.589 72.0933 108.165 71.9522 107.695 71.9522C106.425 71.9522 105.625 72.8459 105.625 74.3512V76.468H112.634V74.1631C112.634 72.6107 111.834 71.6699 110.47 71.6699ZM108.353 74.9627H107.13V74.3983C107.13 73.4574 107.507 73.4574 107.742 73.4574C108.024 73.4574 108.4 73.4574 108.4 74.3983V74.9627H108.353ZM111.129 74.9627H109.812V74.1631C109.812 73.1752 110.235 73.1752 110.517 73.1752C110.799 73.1752 111.176 73.1752 111.176 74.1631V74.9627H111.129Z" fill="#0F9B91"/>
    <path d="M109.106 69.8839C111.129 69.8839 112.681 68.3315 112.681 66.4029C112.681 64.4272 111.129 62.9219 109.106 62.9219C107.084 62.9219 105.531 64.4742 105.531 66.4029C105.531 68.3315 107.131 69.8839 109.106 69.8839ZM109.106 64.3801C110.282 64.3801 111.176 65.2739 111.176 66.3558C111.176 67.4848 110.282 68.3786 109.106 68.3786C107.93 68.3786 107.037 67.4848 107.037 66.3558C107.037 65.2269 107.977 64.3801 109.106 64.3801Z" fill="#0F9B91"/>
    <path d="M112.634 55.8184H111.129V58.9701H109.812V56.2417H108.306V58.9701H107.13V55.8184H105.625V60.4754H112.634V55.8184Z" fill="#0F9B91"/>
    <path d="M70.0235 10C36.8601 10 10 36.8601 10 70.0235C10 103.14 36.8601 130 70.0235 130C103.187 130 130 103.14 130 70.0235C130 36.8601 103.14 10 70.0235 10ZM95.3312 62.5441H97.4951C100.082 62.5441 100.082 64.0024 100.082 64.5198C100.082 65.4136 99.8001 66.4014 97.4951 66.4014H95.3312V62.5441ZM97.1188 61.0388H95.3312V57.3697H97.1188C99.2826 57.3697 99.5178 58.4045 99.5178 59.1572C99.5178 59.9569 99.2826 61.0388 97.1188 61.0388ZM29.0984 62.1207H31.5915C33.0027 62.1207 33.8965 62.9204 33.8965 64.2376C33.8965 65.5076 33.0027 66.3544 31.5915 66.3544H29.0984V62.1207ZM29.0984 82.6303V78.3967H31.5915C33.0027 78.3967 33.8965 79.1964 33.8965 80.5135C33.8965 81.7836 33.0027 82.6303 31.5915 82.6303H29.0984ZM107.327 114.759V82.3011H112.642V80.7958H107.327V78.8671H107.091H105.586V116.123C98.9063 121.298 91.0506 125.061 82.5363 126.942V82.6303H81.1721V72.0933H79.6198V82.6303H74.7746V72.0933H73.1752V82.6303H68.3301V72.0933H66.7307V84.1827H80.7958V127.319C77.2677 127.977 73.6456 128.354 69.9294 128.354C59.3924 128.354 49.4669 125.531 40.9055 120.592L61.321 80.0902L65.3665 72.0933H63.626L60.5214 78.2556L57.5108 72.0933H55.7703L59.6276 79.8079L39.5414 119.698C35.8252 117.393 32.3442 114.665 29.2395 111.607V84.1827H31.6386C33.8965 84.1827 35.4959 82.6774 35.4959 80.5135C35.4959 78.3497 33.8965 76.8444 31.6386 76.8444H29.1454V73.6456H34.6021V72.0933H27.5461V84.1827V109.914C17.7617 99.4708 11.7405 85.4528 11.7405 70.0235C11.7405 54.5943 17.7146 40.5762 27.499 30.1333V55.8644V67.9537H31.5915C33.8495 67.9537 35.4488 66.4485 35.4488 64.2846C35.4488 62.1207 33.8495 60.6154 31.5915 60.6154H29.0984V57.4167H34.5551V55.8644H29.1925V28.3928C39.7295 18.0909 54.1239 11.6935 69.9765 11.6935C71.6699 11.6935 73.3634 11.7875 75.0098 11.9287L46.5033 55.8173L40.6233 64.8491V55.8173H39.0239V67.9067H39.6354H39.7766H40.4822L46.4093 58.922V67.9067H48.0086V56.7111L76.9385 12.1168C82.8655 12.8224 88.5104 14.4218 93.7789 16.7738V57.0874V67.9067H97.5421C100.176 67.9067 101.682 66.6837 101.682 64.4728C101.682 63.1556 101.164 62.1678 100.129 61.6033C100.788 61.0388 101.117 60.1921 101.117 59.1572C101.117 57.0404 99.706 55.8173 97.1658 55.8173H95.4724V17.5735C114.9 27.0286 128.307 46.9737 128.307 70.0235C128.307 87.9459 120.122 104.034 107.327 114.759Z" fill="#0F9B91"/>
</svg>
