<svg width="34" height="34" viewBox="0 0 34 34" fill="none" xmlns="http://www.w3.org/2000/svg">
    <path d="M1 17C1 8.16343 8.16343 1 17 1C25.8366 1 33 8.16343 33 17C33 25.8366 25.8366 33 17 33C8.16343 33 1 25.8366 1 17Z" stroke="white" stroke-width="2"/>
    <path fill-rule="evenodd" clip-rule="evenodd" d="M20.8086 23.958C21.0215 24.1145 21.2952 24.1525 21.5398 24.0573C21.7844 23.9621 21.9655 23.7472 22.0184 23.4861C22.5936 20.7089 23.9872 13.6789 24.5095 11.1533C24.5492 10.9629 24.4844 10.7657 24.3389 10.6379C24.1935 10.5114 23.9912 10.4747 23.8114 10.5427C21.04 11.5981 12.5023 14.8921 9.01293 16.2208C8.7908 16.3051 8.64668 16.5241 8.65461 16.7648C8.66254 17.0056 8.81989 17.2136 9.04599 17.283C10.6115 17.7645 12.6663 18.435 12.6663 18.435C12.6663 18.435 13.6249 21.4175 14.126 22.9339C14.1882 23.123 14.3336 23.274 14.524 23.3243C14.7157 23.376 14.918 23.3229 15.0608 23.1842C15.8647 22.4035 17.1076 21.1972 17.1076 21.1972C17.1076 21.1972 19.4691 22.9775 20.8086 23.958ZM13.5297 18.0582L14.6404 21.8242L14.8863 19.4387C14.8863 19.4387 19.1743 15.4606 21.6191 13.192C21.6918 13.1267 21.7011 13.0152 21.6416 12.9363C21.5821 12.8588 21.475 12.8398 21.393 12.8928C18.5595 14.7533 13.5297 18.0582 13.5297 18.0582Z" fill="white"/>
</svg>
